PathFileType	4	(X/Y/Z)	Patient4_TMGait_0pt3_02_left_07.trc.trc
DataRate	CameraRate	NumFrames	NumMarkers	Units	OrigDataRate	OrigDataStartFrame	OrigNumFrames
50.179211469534	50.179211469534	6	33	mm	50.179211469534	53	       141
Frame#	Time	Sacral			L.Shoulder			Chest			R.Shoulder			Neck			R.ASIS			L.ASIS			R.Thigh.Superior			R.Thigh.Lateral			R.Thigh.Inferior			R.Patella			L.Thigh.Superior			L.Thigh.Lateral			L.Thigh.Inferior			L.Patella			L.Shank.Superior			L.Shank.Lateral			L.Shank.Inferior			R.Shank.Superior			R.Shank.Lateral			R.Shank.Inferior			R.Heel			R.Midfoot.Superior			R.Midfoot.Lateral			R.Toe			L.Heel			L.Midfoot.Lateral			L.Midfoot.Superior			L.Toe			L.Elbow			L.Wrist			R.Elbow			R.Wrist			
		X1	Y1	Z1	X2	Y2	Z2	X3	Y3	Z3	X4	Y4	Z4	X5	Y5	Z5	X6	Y6	Z6	X7	Y7	Z7	X8	Y8	Z8	X9	Y9	Z9	X10	Y10	Z10	X11	Y11	Z11	X12	Y12	Z12	X13	Y13	Z13	X14	Y14	Z14	X15	Y15	Z15	X16	Y16	Z16	X17	Y17	Z17	X18	Y18	Z18	X19	Y19	Z19	X20	Y20	Z20	X21	Y21	Z21	X22	Y22	Z22	X23	Y23	Z23	X24	Y24	Z24	X25	Y25	Z25	X26	Y26	Z26	X27	Y27	Z27	X28	Y28	Z28	X29	Y29	Z29	X30	Y30	Z30	X31	Y31	Z31	X32	Y32	Z32	X33	Y33	Z33	

53	14.536285714286	691.385542360841	1001.286226607410	458.919998091457	862.999874949961	1423.215522145777	259.773969041716	968.012906416698	1361.107571463406	422.091839534930	887.948154832796	1442.560251273018	593.734797570444	848.601596926368	1491.874704856928	414.929386787276	919.717594333884	939.117998665573	576.439724685240	906.844583506690	955.618352205294	302.911436141985	967.486279892569	741.379008594059	562.690867886864	893.698866659345	631.629766407751	632.956588456860	978.208688489937	572.942653704857	561.065693915394	970.422636942725	462.399840935050	588.631582833876	962.486200477357	747.158439360489	339.452511823574	880.102186088679	624.192407460969	287.528644080024	969.583976899338	553.273713330856	352.517584339492	972.249592052020	480.902897764523	364.161092924077	937.517573755447	407.342550527540	361.946307059861	838.592139460174	298.891955233155	313.756678553509	875.893524196302	187.872279748955	392.322128454484	886.570557972362	399.937565348004	594.218550656623	757.543333947905	374.025634809333	645.342364641792	740.838574529938	262.393384861615	602.234807078998	537.785887615224	206.125502455128	556.607778794547	700.178521869206	149.861701992947	623.084752639245	587.094715250910	154.296021281397	642.291153955616	758.564795023414	42.231848743877	667.397168286371	733.868174691750	38.827972023989	435.172759085225	811.106995480534	36.032804710059	357.722507910379	894.817951300691	95.531178658435	387.751908028233	1023.207940123046	40.790423093323	364.344563091887	857.116352212269	1072.071065335803	141.737525532675	928.856517196734	821.086662460684	153.494743081998	937.083155541956	1100.266558736725	725.725578209479	1136.639031941443	935.173901858557	724.111209946324	
54	14.556214285714	689.955230711152	998.882819312282	455.615804452038	862.395936684955	1421.861934036941	258.068726014847	965.568812210851	1360.308712818810	421.681294660838	883.016208115884	1440.878449382690	592.702357942349	846.228904576766	1490.575708062652	413.294553696784	918.113409835290	938.407966753869	574.852760186586	907.201673440524	954.845620871278	301.145227489214	971.771240982755	743.632430686109	560.466319177492	901.931665478181	631.966469708820	631.092387369895	988.133300683912	575.481272206503	558.994345208780	982.949800038861	463.949523979455	586.943155062769	962.554241567298	745.770555592113	338.006314206319	880.281267542050	622.644292112518	286.227834347385	969.351933665588	551.713321859809	351.785235390699	971.759680195603	479.183013107325	363.611748474046	935.993275621102	405.507283245243	361.593765718200	835.840079685592	298.138691253245	313.365326957575	871.329529817845	186.949207986835	392.326091463836	898.360067160225	401.052821877211	592.514158867735	768.446417291270	376.834955120632	642.889034578655	750.523657413382	265.333800906260	600.212506343811	546.791099942992	211.151395618108	553.640260096948	708.569932592499	153.907519036123	621.381111640111	595.233793205850	159.347330534824	639.961328313599	765.858354285761	44.837242800109	666.796742136709	727.832592825268	38.786051224883	435.104505986219	805.080525507614	35.987278402695	357.647881934429	888.806474821576	95.440820610524	387.763243352592	1017.185528776255	40.811222654776	364.306150586553	868.656441733195	1070.829685922843	138.958310671042	950.135046519074	822.933996132830	149.828431006798	916.024379519309	1095.613008663903	723.589114303642	1099.599826882456	912.987557452998	726.198990102121	
55	14.576142857143	688.458283338881	996.544378528058	452.594452747088	861.785183525313	1420.601800376038	256.735411443773	963.151545453205	1359.514566485467	421.565874108944	878.156522831984	1439.137661335805	591.961897231807	843.900945937674	1489.294294602208	412.049230028315	916.484274603603	937.775916680645	573.527837384012	907.592323101049	954.107967613164	299.619151948018	975.655961265185	746.036764254669	558.341309845297	909.786021739544	632.599361321782	629.296044737133	997.398408800541	578.367203435356	556.818453304626	995.018144073908	466.063886725543	585.012854572645	962.563967564285	744.394467796479	337.111257958398	880.455724658744	621.089477813840	285.291051425535	968.925848107616	550.143247817591	351.645332073721	971.044441943228	477.470970598437	363.668313733748	934.305281925237	403.705696734112	361.713706336619	833.119995615001	297.376816422656	313.266258758157	866.717445707517	186.005936656906	392.549448327621	910.158284965961	402.398478639053	590.778402507769	779.753474515235	378.867435980450	640.779309139966	761.304507050789	267.397855236125	598.464935437488	557.167713661124	213.692476274986	551.555037503263	718.932597263138	156.780406699912	619.962040919239	605.432232959831	162.266266844040	638.279998556844	776.136063220139	47.117102375089	666.130580606097	721.791842898061	38.733130391649	435.052972514547	799.051780017337	35.950059622731	357.593919701025	882.789264887464	95.338203337493	387.836033847921	1011.163931233049	40.818220622851	364.274352071534	879.651535033459	1070.103978249893	136.662133976968	971.664292851175	826.024190617661	146.823432904794	894.847226474869	1091.686611387436	721.244326662771	1060.678463089925	892.927427801141	728.014878922767	
56	14.596071428571	686.932477585346	994.376875595523	449.824356443964	861.253076416668	1419.525967063540	255.766336913301	960.817670460003	1358.791912333907	421.751801996107	873.410246917318	1437.430514236912	591.492939817651	841.667586193371	1488.110404111704	411.180936719939	914.815138025410	937.296700800063	572.478330285012	908.048033613295	953.444985931096	298.351994358372	979.065881919352	748.596883809943	556.312410031015	917.151750743519	633.548216678975	627.547947544043	1005.858735387594	581.574547134882	554.500652378144	1006.462061649059	468.742247762858	582.826224797501	962.476558463995	743.056096210955	336.783293530989	880.551015561611	619.586542262659	284.717557253784	968.203661897213	548.598805577948	352.085992399319	969.985181932843	475.808760224995	364.317180534585	932.359628443196	401.989365711662	362.284863996156	830.362895769264	296.627246867990	313.432706954609	862.025456352902	185.070079633980	392.975250011419	921.841337189569	403.972980026199	589.014683154587	791.371565716498	380.042027986360	639.042405053895	773.183019507499	268.475875805362	597.050052086169	568.992036845230	213.545702477374	550.441706534903	731.355550342061	158.310909120706	618.916982001066	617.775270002684	162.854486847806	637.330668061448	789.503935104843	48.845737174910	665.459536183958	715.746737543515	38.673126701153	435.014410402073	793.022987354319	35.921425490965	357.559892174083	876.768719571167	95.225277273826	387.965203611651	1005.145781190714	40.805792349562	364.251769192384	890.043145086621	1069.972076052502	134.765852669830	993.331839944182	830.533850481129	144.416481380650	873.745625233354	1088.627707019556	718.747140653005	1020.388681104738	875.431806408496	729.542129718892	
57	14.616000000000	685.415091587434	992.479540537893	447.281054691502	860.885773726888	1418.713887204936	255.150642501139	958.617243346509	1358.203591468767	422.245172535826	868.811443709453	1435.852730428740	591.271910460248	839.578859664335	1487.100329752534	410.670401091326	913.086881427276	937.033601017523	571.718829036651	908.571190705428	952.891867683494	297.368830442952	981.939923117711	751.309713008726	554.386469393784	923.926942104228	634.816928713649	625.846879025016	1013.396403232674	585.059575117559	552.039947346408	1017.133540516207	471.964363177578	580.409180144873	962.240060501136	741.781889474251	336.989692977788	880.467202420036	618.197108622512	284.482447308525	967.081707383849	547.117306809017	353.037013638875	968.466954315257	474.241725905242	365.483256317477	930.061545893205	400.411163639065	363.239684200757	827.480375475855	295.915479610283	313.816820970509	857.219976107752	184.174812661505	393.565410883056	933.289679221113	405.768783182380	587.243581593793	803.210970392394	380.318205505128	637.689192856242	786.140402225234	268.523945079605	595.998192225420	582.349352697433	210.629540551464	550.299913449207	745.875609871187	158.434560041175	618.289967249602	632.315309657568	161.045920668774	637.126600991298	805.974191861376	49.900797680711	664.834454387190	709.699447938893	38.611242588861	434.984733559632	786.996385547361	35.900982877206	357.544059386950	870.747375474726	95.106493906095	388.139553663591	999.132909900738	40.771633232656	364.240044257626	899.825274163748	1070.494084236218	133.177389007089	1015.029699712123	836.608235360630	142.540544053721	852.902631495699	1086.564416035424	716.166504313972	979.330464045354	860.859575208438	730.757506138902	
58	14.635928571429	683.940245406613	990.937278092514	444.949309887734	860.762747150612	1418.227202316674	254.875898523043	956.591354648912	1357.803976486965	423.050799987602	864.388563070895	1434.495996995264	591.275031608586	837.682456305320	1486.330922207435	410.493208126176	911.281388063200	937.033849679857	571.261391688150	909.132091159895	952.476765867909	296.697043451145	984.229991922995	754.159388430430	552.587691488124	930.010034480841	636.391201227302	624.216107890391	1019.917366219148	588.759709660689	549.483467046294	1026.896974731102	475.689656438961	577.834928470806	961.794137295080	740.595669844670	337.649899055028	880.085120555101	616.981658252773	284.537797302347	965.460080559441	545.734630061747	354.377369971608	966.383859175154	472.815394150958	367.038948421367	927.320315979732	399.021715358856	364.472089502701	824.371929976935	295.269511328192	314.354998024240	852.267739322350	183.356060145603	394.265049033472	944.384030161937	407.773618936675	585.507203570356	815.185773932622	379.696150835803	636.721869618954	800.133403172069	267.568956860859	595.314474626624	597.324487648693	204.992421670627	551.051378458594	762.472588822428	157.195979714487	618.075837783492	649.069346491477	156.909761989782	637.614869939052	825.464507004599	50.284975595130	664.281112972127	703.653218005965	38.553343327772	434.960132492793	780.973646125030	35.887878959410	357.543679763456	864.727215632825	94.988207906002	388.342994927722	993.125994530050	40.716960345036	364.239628327030	909.038055129045	1071.707405021466	131.807294562252	1036.648924805094	844.347889818836	141.129762220928	832.485431296652	1085.601753882491	713.577204507551	938.166959624436	849.458824393402	731.635372584526	
